Genre:Drama | Music
Language:English
IMDb:http://www.imdb.com/title/tt1412367/
Source:Filmikz.Thanks
Encoder: Tony2
..............................................
General
Complete name : Just.Another.Day.2010.CAM.XVID.FEEL-FREE
Format : AVI
Format/Info : Audio Video Interleave
File size : 1.08 GiB
Duration : 1h 34mn
Overall bit rate : 1 637 Kbps
...............................................
Video
ID : 0
Format : MPEG-4 Visual
Format profile : Simple@L3
Format settings, BVOP : Yes
Format settings, QPel : No
Format settings, GMC : No warppoints
Format settings, Matrix : Default (H.263)
Codec ID : XVID
Codec ID/Hint : XviD
Duration : 1h 34mn
Bit rate : 1 496 Kbps
Width : 480 pixels
Height : 272 pixels
Display aspect ratio : 16:9
Frame rate : 30.000 fps
Resolution : 24 bits
Scan type : Progressive
Bits/(Pixel*Frame) : 0.382
Stream size : 1 013 MiB (91%)
...............................................
Audio
ID : 1
Format : MPEG Audio
Format version : Version 1
Format profile : Layer 3
Codec ID : 55
Codec ID/Hint : MP3
Duration : 1h 34mn
Bit rate mode : Constant
Bit rate : 128 Kbps
Channel(s) : 2 channels
Sampling rate : 44.1 KHz
Resolution : 16 bits
Stream size : 86.7 MiB (8%)
Alignment : Aligned on interleaves
Interleave, duration : 26 ms (0.78 video frame)
Writing library : LAME3.97
...............................................
Plot:
Follows a day in the life of two men living at either end of the music game. A successful rapper, A-Maze
...................................................
Screenshots : 
 
http://postimg.com/image/19000/18243.jpg
 
http://postimg.com/image/19000/18244.jpg

.......................................................